<svg xmlns="http://www.w3.org/2000/svg" width="16" height="16" viewBox="0 0 16 16" fill="none">
<g fill="#f97316">
<path d="M1.20041 4.90044C0.890188 5.06933 0.500854 5.04 0.500854 4.68V3.19556L6.12041 0V1.48445C6.12041 1.84533 5.87063 2.28444 5.54085 2.45511L1.20041 4.90489V4.90044ZM9.30085 15.2596C9.61107 15.0844 9.61107 14.7796 9.30085 14.6089L4.82707 12.0604C4.64881 11.9761 4.45405 11.9323 4.25685 11.9323C4.05964 11.9323 3.86488 11.9761 3.68663 12.0604L2.39152 12.8053L8.01196 16L9.30707 15.2604L9.30085 15.2596ZM14.1008 2.45067C13.7808 2.28622 13.5008 2.41511 13.5008 2.78044V7.88088C13.5008 8.24088 13.7604 8.68088 14.1008 8.84533L15.4502 9.59111V3.19556L14.1008 2.456V2.45067Z" fill="#F97316"/>
<path d="M0.500889 3.2L6.12044 0L11.1755 2.87467C11.4858 3.04533 11.4858 3.35022 11.1755 3.52L6.69555 6.07022C6.39066 6.24 5.86533 6.24 5.56044 6.07022L0.5 3.19467L0.500889 3.2ZM2.00044 6.90044C2.00044 6.53511 2.26533 6.4 2.61555 6.57511L7.38533 9.17066C7.55888 9.27244 7.70538 9.41451 7.81245 9.58485C7.91951 9.75518 7.98399 9.94881 8.00044 10.1493V16L2.00044 12.7502V6.90044ZM10.5658 12.4604C10.2653 12.6356 10.0004 12.5004 10.0004 12.1404V7.04C10.0004 6.68 10.2458 6.24 10.5658 6.07022L15.5009 3.19556V9.59022L10.5658 12.4604Z" fill="#F97316"/>
</g>
</svg>
